<svg width="88" height="24" viewBox="0 0 88 24" fill="none" xmlns="http://www.w3.org/2000/svg">
<path d="M6.69674 22.5191V22.1284C5.14214 22.1284 5.14214 20.5355 5.14214 18.1612V5.8388C5.14214 3.46448 5.14214 1.87158 6.69674 1.87158V1.48087H0V1.87158C1.5546 1.87158 1.5546 3.46448 1.5546 5.8388V18.1612C1.5546 20.5355 1.5546 22.1284 0 22.1284V22.5191H6.69674Z" fill="#2C2C2C"/>
<path d="M8.14553 1.48087V1.87158C9.70013 1.87158 9.70013 3.46448 9.70013 5.8388V18.1612C9.70013 20.5355 9.70013 22.1284 8.14553 22.1284V22.5191H14.8423V22.1284C13.2877 22.1284 13.2877 20.5355 13.2877 18.1612V8.99453L24.2596 22.5191H28.3254V22.1284C26.7708 22.1284 26.7708 20.5355 26.7708 18.1612V5.8388C26.7708 3.46448 26.7708 1.87158 28.3254 1.87158V1.48087H21.6287V1.87158C23.0338 1.87158 23.1833 3.19399 23.1833 5.2377V15.6366L11.8228 1.48087H8.14553Z" fill="#2C2C2C"/>
<path d="M30.1089 1.48087V6.40984H30.4976C30.4976 4.84699 32.0821 4.84699 34.4439 4.84699H36.8953V18.1612C36.8953 20.5355 36.8953 22.1284 35.3706 22.1284V22.5191H42.0375V22.1284C40.4829 22.1284 40.4829 20.5355 40.4829 18.1612V4.84699H42.9942C45.3559 4.84699 46.9404 4.84699 46.9404 6.40984H47.3291V1.48087H30.1089Z" fill="#2C2C2C"/>
<path d="M49.1359 1.48087V1.87158C50.6905 1.87158 50.6905 3.46448 50.6905 5.8388V18.1612C50.6905 20.5355 50.6905 22.1284 49.1359 22.1284V22.5191H64.2335L64.6819 17.5902H64.2634C64.2634 19.153 62.2603 19.153 59.8986 19.153H54.2781V4.84699H59.8986C62.2603 4.84699 63.8448 4.84699 63.8448 6.40984H64.2335V1.48087H49.1359ZM59.8687 15.3661C60.1078 13.7131 61.2738 12.1503 62.8284 12.1503V11.7596C61.2738 11.7596 60.1078 10.2268 59.8687 8.54372H59.48C59.2707 10.2268 58.0749 11.7596 56.5502 11.7596V12.1503C58.0749 12.1503 59.2707 13.7131 59.48 15.3661H59.8687Z" fill="#2C2C2C"/>
<path d="M88 12C88 4.66666 82.6187 1 77.2374 1C71.8262 1 66.4449 4.66666 66.4449 12C66.4449 19.3333 71.8262 23 77.2374 23C82.6187 23 88 19.3333 88 12ZM84.5022 12C84.5022 16.929 80.8548 19.3634 77.2374 19.3634C73.5901 19.3634 69.9726 16.929 69.9726 12C69.9726 7.07104 73.5901 4.63661 77.2374 4.63661C80.8548 4.63661 84.5022 7.07104 84.5022 12ZM77.5065 15.306C77.7456 13.6229 78.9116 12.0902 80.4662 12.0902V11.6694C78.9116 11.6694 77.7456 10.1366 77.5065 8.45355H77.1178C76.9085 10.1366 75.7127 11.6694 74.188 11.6694V12.0902C75.7127 12.0902 76.9085 13.6229 77.1178 15.306H77.5065Z" fill="#2C2C2C"/>
<path d="M59.8693 15.3661C60.1084 13.7131 61.2744 12.1502 62.829 12.1502V11.7595C61.2744 11.7595 60.1084 10.2267 59.8693 8.54366H59.4806C59.2713 10.2267 58.0755 11.7595 56.5508 11.7595V12.1502C58.0755 12.1502 59.2713 13.7131 59.4806 15.3661H59.8693Z" fill="#996830"/>
<path d="M77.507 15.3059C77.7462 13.6229 78.9122 12.0901 80.4668 12.0901V11.6693C78.9122 11.6693 77.7462 10.1366 77.507 8.45349H77.1184C76.9091 10.1366 75.7133 11.6693 74.1886 11.6693V12.0901C75.7133 12.0901 76.9091 13.6229 77.1184 15.3059H77.507Z" fill="#996830"/>
</svg>
